#!OML:ASF E:\Steps\Project 1\Capture day 1\Session 2\Subject.ASF
:FULLY-SPECIFIED
:DEGREES
294
root 11.0872 13.9729 15.7158 -163.13 -1.63689 169.465
lowerback -13.9839 0.68107 -2.63202
upperback 3.49797 1.54578 -1.71596
thorax 11.7012 0.598758 -0.0240442
lowerneck -1.80565 4.63491 -1.96826
upperneck 12.7117 5.8482 0.574083
head 4.42473 2.62591 0.775164
rclavicle 7.95139e-015 2.38542e-015
rhumerus -25.1857 -3.41212 -79.1147
rradius 54.2665
rwrist -6.67695
rhand -7.8375 -411.768
rfingers 7.12502
rthumb 18.0652 -440.949
lclavicle 7.95139e-015 2.38542e-015
lhumerus -34.2971 3.69977 64.6683
lradius 22.5433
lwrist -0.271915
lhand -21.3364 -16.3479
lfingers 7.12502
lthumb 5.04954 13.572
rfemur -0.44168 8.29182 -5.58483
rtibia 37.6283
rfoot -38.3229 -11.1341
rtoes -50.5503
lfemur -72.3917 14.4502 -1.34692
ltibia 52.664
lfoot 7.83857 2.45719
ltoes -51.2587
295
root 10.9695 13.9705 15.6405 -162.672 -1.88762 169.591
lowerback -13.552 0.512839 -3.24139
upperback 3.68454 1.40666 -1.67972
thorax 11.6439 0.484517 0.320502
lowerneck -1.89773 4.52242 -1.99319
upperneck 12.217 5.72144 0.717929
head 4.25936 2.59272 0.816037
rclavicle 3.97569e-016 -1.59028e-015
rhumerus -24.5903 -3.64537 -79.2929
rradius 54.9055
rwrist -6.76569
rhand -7.40111 -413.144
rfingers 7.12502
rthumb 18.485 -442.286
lclavicle 3.97569e-016 -1.59028e-015
lhumerus -33.0526 2.4242 64.6377
lradius 22.9818
lwrist 0.117534
lhand -22.0012 -16.2705
lfingers 7.12502
lthumb 4.40763 13.6637
rfemur -0.270907 8.3241 -5.85786
rtibia 37.0085
rfoot -36.9904 -11.1815
rtoes -51.1755
lfemur -74.3106 14.7602 -2.4835
ltibia 54.8399
lfoot 7.34107 1.93234
ltoes -50.2871
296
root 10.8496 13.9749 15.5661 -162.009 -2.06817 169.711
lowerback -13.1221 0.394469 -3.77024
upperback 3.70933 1.31496 -1.69938
thorax 11.4094 0.40489 0.570855
lowerneck -2.02063 4.48142 -2.15368
upperneck 11.8866 5.67174 1.03156
head 4.15005 2.59179 0.943254
rclavicle 1.98785e-015 2.78299e-014
rhumerus -24.1125 -3.89827 -79.4872
rradius 55.4135
rwrist -7.02619
rhand -6.69618 -415.356
rfingers 7.12502
rthumb 19.163 -444.432
lclavicle 1.98785e-015 2.78299e-014
lhumerus -31.8532 1.04315 64.4773
lradius 23.4544
lwrist 0.571983
lhand -22.4053 -16.1907
lfingers 7.12502
lthumb 4.01736 13.7511
rfemur -0.42083 8.39767 -6.16926
rtibia 36.6144
rfoot -35.8818 -11.0669
rtoes -51.411
lfemur -76.0343 15.0361 -3.60346
ltibia 56.374
lfoot 6.57881 2.11252
ltoes -46.6629
297
root 10.7287 13.9891 15.4899 -161.275 -2.0657 169.731
lowerback -12.5779 0.343552 -4.37927
upperback 3.59667 1.31387 -1.78544
thorax 10.951 0.371631 0.814026
lowerneck -2.13313 4.35324 -2.23108
upperneck 11.8123 5.48148 1.33367
head 4.13745 2.51267 1.05154
rclavicle -3.4191e-014 -1.27222e-014
rhumerus -23.9824 -3.87242 -79.6788
rradius 56.1008
rwrist -7.47272
rhand -8.19772 -412.25
rfingers 7.12502
rthumb 17.7186 -441.463
lclavicle -3.4191e-014 -1.27222e-014
lhumerus -30.7633 -0.727787 64.3544
lradius 24.0854
lwrist 1.31484
lhand -22.4213 -15.9939
lfingers 7.12502
lthumb 4.00199 13.9483
rfemur -0.794988 8.54623 -6.64369
rtibia 36.4276
rfoot -34.7482 -11.0462
rtoes -51.8223
lfemur -77.2623 15.2339 -4.64907
ltibia 57.2475
lfoot 5.59778 2.54178
ltoes -40.9547
298
root 10.6065 14.0119 15.4113 -160.515 -1.9242 169.73
lowerback -12.6179 0.345418 -5.07571
upperback 3.77319 1.43991 -1.8737
thorax 11.1583 0.374555 1.13512
lowerneck -2.20056 4.07063 -2.23566
upperneck 11.404 5.10192 1.60109
head 4.00471 2.3531 1.12037
rclavicle -2.34566e-014 -2.46493e-014
rhumerus -23.4432 -3.96379 -79.8638
rradius 56.7977
rwrist -7.70788
rhand -8.71126 -410.268
rfingers 7.12502
rthumb 17.2244 -439.524
lclavicle -2.34566e-014 -2.46493e-014
lhumerus -29.0233 -2.27311 64.1664
lradius 24.3883
lwrist 1.72347
lhand -22.7301 -16.3117
lfingers 7.12502
lthumb 3.70372 13.6358
rfemur -1.24054 8.83364 -7.19872
rtibia 36.037
rfoot -33.3986 -10.7615
rtoes -51.7882
lfemur -78.1377 15.3492 -5.55957
ltibia 57.826
lfoot 4.35485 2.51854
ltoes -38.1308
299
root 10.4843 14.0397 15.3324 -159.785 -1.86773 169.883
lowerback -12.3848 0.385692 -5.60395
upperback 3.80572 1.56401 -1.94549
thorax 11.0417 0.397996 1.37633
lowerneck -2.28075 3.82205 -2.11873
upperneck 11.2992 4.74992 1.78177
head 3.98916 2.19631 1.14706
rclavicle -2.88238e-014 -2.38542e-015
rhumerus -23.1225 -4.17256 -80.025
rradius 57.4473
rwrist -7.76118
rhand -8.47851 -410.461
rfingers 7.12502
rthumb 17.4484 -439.697
lclavicle -2.88238e-014 -2.38542e-015
lhumerus -27.2863 -3.73447 63.7955
lradius 24.4801
lwrist 1.70521
lhand -23.0555 -16.8367
lfingers 7.12502
lthumb 3.38952 13.1161
rfemur -1.52329 9.25038 -7.47275
rtibia 35.3934
rfoot -32.1341 -10.2977
rtoes -50.9609
lfemur -78.824 15.3673 -6.14422
ltibia 58.3189
lfoot 2.76144 2.22268
ltoes -37.6208
300
root 10.3642 14.0723 15.2554 -159.129 -2.00836 170.283
lowerback -11.881 0.452685 -5.84289
upperback 3.80207 1.65016 -1.97908
thorax 10.7285 0.430479 1.4844
lowerneck -2.50636 3.62296 -1.9314
upperneck 11.2545 4.47118 1.9026
head 4.02537 2.07664 1.14948
rclavicle -1.68967e-014 -2.06736e-014
rhumerus -22.8902 -4.29882 -80.1798
rradius 57.9629
rwrist -8.03159
rhand -7.94639 -411.669
rfingers 7.12502
rthumb 17.9604 -440.86
lclavicle -1.68967e-014 -2.06736e-014
lhumerus -25.5616 -5.20289 63.2908
lradius 24.7749
lwrist 1.56758
lhand -23.1237 -16.7804
lfingers 7.12502
lthumb 3.32367 13.1734
rfemur -1.59783 9.67006 -7.29374
rtibia 34.5947
rfoot -30.669 -10.4029
rtoes -50.6888
lfemur -79.4965 15.3339 -6.32357
ltibia 58.9743
lfoot 1.25133 1.7492
ltoes -37.5323
301
root 10.2443 14.1064 15.1833 -158.33 -2.06919 170.879
lowerback -11.5057 0.574546 -5.91313
upperback 3.72747 1.79134 -1.99792
thorax 10.4114 0.504164 1.52618
lowerneck -2.68315 3.35164 -1.70273
upperneck 11.2073 4.0776 2.10766
head 4.05271 1.90409 1.1661
rclavicle -6.55989e-015 -1.51076e-014
rhumerus -22.6629 -4.34587 -80.3186
rradius 58.4095
rwrist -8.42543
rhand -8.76625 -410.038
rfingers 7.12502
rthumb 17.1714 -439.299
lclavicle -6.55989e-015 -1.51076e-014
lhumerus -23.8529 -6.83254 62.7096
lradius 25.2222
lwrist 1.6678
lhand -23.1558 -16.1929
lfingers 7.12502
lthumb 3.29267 13.7614
rfemur -2.07376 9.97129 -7.04108
rtibia 33.9809
rfoot -28.8618 -10.575
rtoes -50.7382
lfemur -80.4417 15.4954 -6.2968
ltibia 59.7435
lfoot 0.303992 1.37061
ltoes -36.853
302
root 10.0867 14.1577 15.0852 -157.77 -1.3452 171.266
lowerback -11.4381 0.914882 -5.90282
upperback 3.79797 2.25404 -2.21128
thorax 10.4271 0.727977 1.37925
lowerneck -2.66048 3.03473 -1.50984
upperneck 11.0754 3.61886 2.31464
head 4.01132 1.69606 1.1798
rclavicle 2.10712e-014 1.23246e-014
rhumerus -22.4331 -4.26959 -80.3538
rradius 58.9194
rwrist -8.72897
rhand -8.83816 -409.58
rfingers 7.12502
rthumb 17.1022 -438.848
lclavicle 2.10712e-014 1.23246e-014
lhumerus -22.1242 -8.40794 62.138
lradius 25.5821
lwrist 1.78078
lhand -23.0849 -15.8727
lfingers 7.12502
lthumb 3.36109 14.0806
rfemur -2.57165 10.2793 -7.67833
rtibia 33.1983
rfoot -26.7176 -9.96835
rtoes -50.8871
lfemur -80.8146 15.8651 -6.66017
ltibia 60.1225
lfoot -0.0519524 1.34659
ltoes -38.6076
303
root 10.0136 14.1902 15.1503 -154.4 -3.63915 170.954
lowerback -11.5901 -0.0250983 -6.83795
upperback 2.76117 1.08339 -2.00552
thorax 9.4292 0.154738 1.902
lowerneck -2.63081 2.84077 -1.58341
upperneck 10.8212 3.33072 2.7369
head 3.91393 1.57318 1.31663
rclavicle 1.19271e-015 1.11319e-014
rhumerus -22.203 -4.02418 -80.3306
rradius 59.3367
rwrist -9.14889
rhand -9.04417 -410.006
rfingers 7.12502
rthumb 16.9039 -439.29
lclavicle 1.19271e-015 1.11319e-014
lhumerus -20.4413 -9.60557 61.5233
lradius 25.9812
lwrist 1.55991
lhand -23.0702 -15.9404
lfingers 7.12502
lthumb 3.37529 14.0126
rfemur -4.91833 7.79758 -8.06212
rtibia 33.0139
rfoot -24.8783 -10.5491
rtoes -50.4449
lfemur -86.3921 14.1355 -8.14358
ltibia 62.0275
lfoot 0.16931 0.794981
ltoes -42.7409
304
root 9.8792 14.2553 15.0463 -154.432 -3.43242 171.688
lowerback -10.8387 0.203515 -6.73387
upperback 2.98259 1.31628 -1.95412
thorax 9.21371 0.275022 1.93462
lowerneck -2.64841 2.77075 -1.83385
upperneck 10.5116 3.21589 3.28872
head 3.79947 1.5356 1.53483
rclavicle 4.17448e-015 3.22031e-014
rhumerus -22.0694 -3.74863 -80.2424
rradius 60.0262
rwrist -9.15919
rhand -8.68389 -412.098
rfingers 7.12502
rthumb 17.2507 -441.352
lclavicle 4.17448e-015 3.22031e-014
lhumerus -18.8772 -10.7484 60.8675
lradius 26.5239
lwrist 1.36148
lhand -23.236 -15.9864
lfingers 7.12502
lthumb 3.21518 13.9691
rfemur -4.36258 8.58257 -7.67566
rtibia 31.731
rfoot -22.7739 -10.1668
rtoes -49.6117
lfemur -86.3477 14.4906 -8.20459
ltibia 62.324
lfoot 0.141148 0.67062
ltoes -44.1494
305
root 9.75872 14.3197 14.8942 -154.97 -2.26235 172.873
lowerback -10.1585 0.829103 -6.6838
upperback 3.3138 2.10277 -1.98298
thorax 9.11542 0.653764 2.00347
lowerneck -2.79109 2.59058 -1.62072
upperneck 10.5751 2.91935 3.60518
head 3.85815 1.40852 1.59626
rclavicle 1.23246e-014 8.74653e-015
rhumerus -22.181 -3.56115 -80.3147
rradius 60.6258
rwrist -9.37511
rhand -8.71557 -411.89
rfingers 7.12502
rthumb 17.2202 -441.147
lclavicle 1.23246e-014 8.74653e-015
lhumerus -17.4424 -12.4382 59.9821
lradius 27.2482
lwrist 1.77441
lhand -23.4481 -15.928
lfingers 7.12502
lthumb 3.01039 14.0305
rfemur -3.7541 10.6067 -7.01245
rtibia 30.1836
rfoot -20.1693 -9.81887
rtoes -48.3359
lfemur -85.0584 16.1169 -7.77529
ltibia 62.1154
lfoot -0.177762 0.912646
ltoes -43.4488
306
root 9.62695 14.3912 14.7913 -154.58 -1.8594 173.499
lowerback -9.9517 1.08116 -6.82051
upperback 3.48428 2.44721 -2.01749
thorax 9.14995 0.806496 2.09683
lowerneck -2.91052 2.21163 -1.25651
upperneck 10.3298 2.40525 3.59927
head 3.81463 1.174 1.50755
rclavicle 6.65929e-015 -2.70347e-014
rhumerus -22.0248 -3.2255 -80.2481
rradius 61.0594
rwrist -9.48804
rhand -8.63962 -410.832
rfingers 7.12502
rthumb 17.2933 -440.083
lclavicle 6.65929e-015 -2.70347e-014
lhumerus -15.7017 -13.7057 59.1291
lradius 27.9133
lwrist 2.17932
lhand -23.6436 -15.9507
lfingers 7.12502
lthumb 2.82153 14.0103
rfemur -3.6774 11.0757 -7.13086
rtibia 28.5862
rfoot -17.4653 -9.30341
rtoes -47.6353
lfemur -85.1327 16.5607 -7.90089
ltibia 62.1404
lfoot -0.507946 1.05541
ltoes -43.456
307
root 9.53381 14.4667 14.7765 -152.835 -2.81285 173.422
lowerback -9.96615 0.667306 -7.74194
upperback 3.27245 1.99406 -1.87141
thorax 8.93768 0.542245 2.68957
lowerneck -3.03759 1.90669 -1.17027
upperneck 9.80377 2.02558 3.68951
head 3.66547 1.00443 1.50073
rclavicle -9.24349e-015 3.97569e-016
rhumerus -21.4649 -2.72391 -80.063
rradius 61.3187
rwrist -9.50641
rhand -9.32514 -409.076
rfingers 7.12502
rthumb 16.6334 -438.384
lclavicle -9.24349e-015 3.97569e-016
lhumerus -13.656 -14.2565 58.3305
lradius 28.4547
lwrist 2.21466
lhand -23.6799 -16.002
lfingers 7.12502
lthumb 2.78649 13.9595
rfemur -4.47516 10.0605 -7.59159
rtibia 27.1618
rfoot -14.7557 -9.48284
rtoes -47.3742
lfemur -87.4601 15.7134 -8.8914
ltibia 62.7625
lfoot -0.813794 0.708873
ltoes -43.7256
308
root 9.4032 14.5592 14.6743 -152.564 -2.48842 173.855
lowerback -9.32654 0.887479 -8.09624
upperback 3.32244 2.26594 -1.91671
thorax 8.58188 0.665016 2.8664
lowerneck -3.13188 1.7571 -1.07443
upperneck 9.7128 1.79831 3.93281
head 3.65822 0.906025 1.55615
rclavicle 4.07509e-015 -1.35174e-014
rhumerus -21.481 -2.33883 -79.9344
rradius 61.5594
rwrist -9.75306
rhand -8.69998 -416.377
rfingers 7.12502
rthumb 17.2352 -445.633
lclavicle 4.07509e-015 -1.35174e-014
lhumerus -12.018 -15.24 57.516
lradius 29.1458
lwrist 2.54872
lhand -23.5828 -15.8652
lfingers 7.12502
lthumb 2.88024 14.0951
rfemur -4.21994 10.4612 -7.94488
rtibia 25.3138
rfoot -11.5047 -9.17046
rtoes -47.0898
lfemur -87.1218 15.7848 -9.07278
ltibia 62.5795
lfoot -1.3544 0.864752
ltoes -43.3136
